<?xml version="1.0" standalone="no"?>
<!DOCTYPE svg PUBLIC "-//W3C//DTD SVG 20010904//EN"
 "http://www.w3.org/TR/2001/REC-SVG-20010904/DTD/svg10.dtd">
<svg version="1.0" xmlns="http://www.w3.org/2000/svg"
 width="275.000000pt" height="183.000000pt" viewBox="0 0 275.000000 183.000000"
 preserveAspectRatio="xMidYMid meet">

<g transform="translate(0.000000,183.000000) scale(0.100000,-0.100000)"
fill="#000000" stroke="none">
<path d="M1075 1450 c-247 -4 -451 -8 -453 -9 -1 0 -54 -79 -116 -173 -108
-165 -117 -176 -205 -243 l-92 -70 3 -210 3 -210 142 -3 142 -3 6 -30 c13 -56
66 -105 132 -120 78 -17 175 43 189 117 3 19 12 37 18 39 6 2 198 5 428 8
l416 4 6 -30 c3 -17 17 -45 31 -62 45 -60 62 -63 358 -64 l267 -2 0 163 c-1
127 -4 167 -15 182 -11 15 -15 51 -15 150 0 115 -3 134 -20 156 -15 20 -20 41
-20 102 0 42 4 79 10 83 28 17 130 -56 161 -117 45 -89 32 -189 -35 -266 l-31
-36 42 24 c127 70 145 255 37 364 -36 36 -99 65 -140 66 -30 0 -32 2 -36 48
-6 63 -26 102 -67 129 -34 23 -35 23 -365 21 -182 -1 -533 -5 -781 -8z m1130
-16 c30 -14 65 -64 65 -93 0 -14 -30 -20 -115 -23 l-70 -3 0 -125 0 -125 -45
-3 c-71 -5 -80 -22 -80 -173 l0 -126 -44 10 c-63 14 -129 1 -179 -36 -45 -35
-87 -105 -87 -148 l0 -26 -242 -6 c-402 -11 -518 -10 -518 8 0 13 42 15 308
17 169 0 312 2 317 3 6 2 19 3 30 4 11 1 38 12 60 26 l40 26 -388 -3 c-213 -2
-387 1 -387 5 0 4 -22 30 -48 56 -82 82 -195 90 -290 21 -41 -29 -82 -102 -82
-145 0 -14 -1 -25 -2 -25 -2 -1 -50 -2 -108 -4 -58 -2 -81 -1 -53 1 48 4 53 6
53 28 0 24 -3 25 -55 25 -70 0 -72 18 -2 22 l52 3 3 67 3 67 -58 3 -58 3 -3
91 -3 91 94 71 c90 69 98 79 202 240 60 92 110 169 112 171 1 2 260 7 575 11
1002 12 966 12 1003 -6z m-86 -254 c1 -78 -2 -120 -9 -120 -6 0 -10 45 -10
126 0 69 4 123 9 120 4 -3 9 -60 10 -126z m61 115 c-33 -19 -50 -19 -50 0 0
11 11 15 38 15 l37 -1 -25 -14z m25 -101 c63 -44 65 -47 65 -90 l0 -44 -70 0
-70 0 0 90 c0 50 2 90 5 90 2 0 34 -21 70 -46z m-105 -158 c0 -10 -16 -15 -56
-18 -62 -3 -69 -1 -53 19 16 18 109 18 109 -1z m65 4 c11 -17 -3 -28 -30 -22
-32 6 -33 32 -1 32 14 0 28 -4 31 -10z m125 -5 c11 -13 5 -15 -49 -15 -48 0
-61 3 -61 15 0 11 12 15 49 15 31 0 53 -5 61 -15z m-200 -75 c0 -41 8 -47 40
-30 13 7 21 7 25 0 3 -5 13 -10 21 -10 10 0 14 12 14 40 l0 40 60 0 60 0 0
-130 0 -130 -32 -1 c-18 -1 -91 -1 -163 0 -71 0 -133 1 -137 1 -5 0 -8 59 -8
130 l0 130 60 0 60 0 0 -40z m88 11 c-2 -26 -5 -28 -40 -28 -35 0 -38 2 -38
28 0 27 3 29 40 29 38 0 40 -2 38 -29z m-234 -221 c21 -21 -12 -37 -67 -32
-91 7 -164 -43 -182 -125 -8 -37 -35 -45 -35 -10 1 66 71 149 147 174 40 13
121 9 137 -7z m-1623 -17 c1 -10 2 -34 4 -55 l3 -36 -48 -4 -48 -3 -5 50 c-3
28 -3 53 0 58 2 4 24 7 49 7 35 0 44 -4 45 -17z m423 7 c45 -17 104 -79 120
-127 21 -60 20 -65 -5 -61 -14 2 -25 16 -34 42 -29 83 -121 132 -203 108 -50
-15 -99 -64 -114 -114 -8 -27 -17 -38 -31 -38 -17 0 -18 5 -13 38 16 91 105
162 202 162 29 0 64 -4 78 -10z m1344 -82 c3 -53 4 -53 32 -36 16 10 24 10 40
0 29 -18 30 -17 30 38 l0 50 70 0 70 0 0 -155 0 -155 -190 0 -190 0 0 155 0
156 68 -3 67 -3 3 -47z m92 12 c0 -41 -7 -49 -28 -28 -9 9 -15 9 -24 0 -21
-21 -28 -13 -28 28 l0 40 40 0 40 0 0 -40z m-272 -46 c18 -12 22 -25 22 -69 0
-61 -21 -85 -73 -85 -37 0 -87 49 -87 85 0 36 50 85 87 85 16 0 39 -7 51 -16z
m-1198 -11 c34 -23 40 -33 40 -71 0 -45 -38 -82 -85 -82 -64 0 -100 62 -70
119 25 49 73 63 115 34z m868 3 c-19 -14 -268 -26 -545 -26 -128 0 -153 2
-153 15 0 15 56 18 520 22 163 2 192 0 178 -11z m-1250 -38 c-3 -7 -25 -14
-51 -16 -37 -2 -47 0 -47 12 0 12 12 16 51 16 36 0 49 -4 47 -12z"/>
<path d="M828 1400 l-177 -5 -100 -147 -100 -148 38 0 c27 0 49 9 76 30 35 28
44 30 121 30 67 0 84 -3 84 -14 0 -8 -4 -18 -10 -21 -31 -19 3 -25 140 -25
l150 0 0 155 c0 155 0 155 -22 153 -13 -1 -103 -5 -200 -8z m212 -150 l0 -140
-133 0 -134 0 5 30 4 30 -93 0 c-89 -1 -96 -2 -133 -30 -35 -27 -76 -40 -76
-25 0 3 41 66 92 140 l92 135 188 0 188 0 0 -140z"/>
<path d="M1360 1303 c-19 -30 -29 -55 -26 -68 3 -11 6 -113 6 -228 l0 -207
293 2 292 3 -4 235 c-4 235 -4 235 -30 272 l-26 38 -237 0 -236 0 -32 -47z
m210 28 c0 -5 -4 -21 -10 -35 -9 -25 -12 -26 -105 -26 -52 0 -95 4 -95 9 0 4
10 19 23 32 19 21 33 24 105 27 50 2 82 -1 82 -7z m104 -13 c12 -45 8 -48 -49
-48 -58 0 -61 3 -45 44 8 22 16 26 49 26 32 0 40 -4 45 -22z m204 -8 c12 -16
22 -32 22 -35 0 -3 -44 -5 -99 -5 -85 0 -99 2 -104 18 -2 9 -8 25 -12 35 -6
15 1 17 82 17 87 0 90 -1 111 -30z m-328 -109 c0 -87 4 -94 45 -70 31 19 36
19 64 5 16 -9 32 -16 36 -16 3 0 5 32 5 70 l0 70 105 0 105 0 0 -225 0 -225
-280 0 -280 0 0 225 0 225 100 0 100 0 0 -59z m140 -2 c0 -54 -2 -60 -17 -54
-40 16 -54 17 -78 1 l-25 -16 0 65 0 65 60 0 60 0 0 -61z"/>
<path d="M1735 958 c-9 -22 -3 -50 11 -55 17 -6 24 34 9 54 -13 17 -14 17 -20
1z"/>
<path d="M1807 956 c-7 -18 3 -56 14 -56 14 0 21 21 15 46 -7 27 -21 32 -29
10z"/>
<path d="M1700 879 c0 -6 31 -9 85 -8 47 1 85 6 85 10 0 5 -38 9 -85 9 -53 0
-85 -4 -85 -11z"/>
<path d="M1700 850 c0 -6 35 -10 85 -10 50 0 85 4 85 10 0 6 -35 10 -85 10
-50 0 -85 -4 -85 -10z"/>
<path d="M403 1052 c-24 -15 -43 -31 -43 -35 0 -10 27 5 65 37 39 33 30 32
-22 -2z"/>
<path d="M442 1032 c-46 -30 -59 -53 -14 -27 43 26 66 44 61 49 -3 3 -24 -7
-47 -22z"/>
<path d="M700 1040 c-176 -5 -187 -6 -222 -30 -21 -14 -38 -29 -38 -34 0 -8
20 4 75 41 15 10 75 13 262 13 155 0 243 4 243 10 0 6 -28 9 -67 8 -38 -1
-151 -5 -253 -8z"/>
<path d="M1041 933 c1 -38 5 -113 9 -168 6 -96 7 -93 8 68 1 106 -2 167 -8
167 -6 0 -10 -28 -9 -67z"/>
<path d="M993 890 c0 -25 2 -35 4 -22 2 12 2 32 0 45 -2 12 -4 2 -4 -23z"/>
<path d="M2200 811 c0 -12 5 -21 10 -21 6 0 10 6 10 14 0 8 -4 18 -10 21 -5 3
-10 -3 -10 -14z"/>
<path d="M2247 816 c-3 -8 -2 -18 3 -21 13 -8 24 15 12 27 -6 6 -11 4 -15 -6z"/>
<path d="M2208 773 c18 -2 45 -2 60 0 15 2 0 4 -33 4 -33 0 -45 -2 -27 -4z"/>
<path d="M2208 753 c18 -2 45 -2 60 0 15 2 0 4 -33 4 -33 0 -45 -2 -27 -4z"/>
<path d="M2267 503 c-10 -9 -9 -43 2 -43 5 0 11 6 14 13 6 17 -7 40 -16 30z"/>
<path d="M2207 494 c-8 -8 3 -34 14 -34 5 0 9 9 9 20 0 19 -11 26 -23 14z"/>
<path d="M2207 443 c18 -2 50 -2 70 0 21 2 7 4 -32 4 -38 0 -55 -2 -38 -4z"/>
<path d="M2207 423 c18 -2 50 -2 70 0 21 2 7 4 -32 4 -38 0 -55 -2 -38 -4z"/>
<path d="M1819 579 c-16 -30 3 -69 34 -69 29 0 47 17 47 45 0 45 -60 63 -81
24z m61 -4 c15 -18 7 -43 -16 -52 -24 -9 -46 24 -33 48 12 23 32 24 49 4z"/>
<path d="M636 574 c-34 -34 -9 -78 41 -72 23 2 29 9 31 33 6 46 -40 71 -72 39z
m64 -35 c0 -24 -27 -36 -48 -22 -23 14 -25 29 -7 47 21 20 55 5 55 -25z"/>
</g>
</svg>
