<?xml version="1.0" standalone="no"?>
<!DOCTYPE svg PUBLIC "-//W3C//DTD SVG 20010904//EN"
 "http://www.w3.org/TR/2001/REC-SVG-20010904/DTD/svg10.dtd">
<svg version="1.0" xmlns="http://www.w3.org/2000/svg"
 width="800.000000pt" height="567.000000pt" viewBox="0 0 800.000000 567.000000"
 preserveAspectRatio="xMidYMid meet">

<g transform="translate(0.000000,567.000000) scale(0.100000,-0.100000)"
fill="#000000" stroke="none">
<path d="M4901 5176 c-112 -37 -174 -158 -175 -342 l-1 -82 -115 -3 c-123 -4
-154 -14 -184 -62 -14 -21 -136 -694 -136 -750 0 -16 10 -38 25 -52 l24 -25
638 0 c508 1 641 3 655 14 42 32 41 50 -23 419 -34 194 -68 366 -76 384 -25
53 -80 73 -201 73 l-102 0 0 76 c0 158 -52 285 -136 331 -52 29 -136 37 -193
19z m158 -93 c56 -42 91 -143 91 -265 l0 -68 -169 0 c-198 0 -187 -9 -171 131
18 155 81 236 179 226 24 -3 55 -14 70 -24z m-245 -470 c-3 -60 -14 -247 -23
-418 l-16 -310 -63 -3 -64 -3 6 63 c6 57 56 750 56 770 0 4 25 8 56 8 l55 0
-7 -107z m458 -268 c15 -203 27 -391 27 -417 l1 -48 -60 0 c-33 0 -60 1 -60 3
-18 331 -40 754 -40 790 l0 48 53 -3 52 -3 27 -370z"/>
<path d="M4711 4358 c-12 -183 -25 -359 -28 -390 l-6 -58 37 0 c20 0 36 1 36
3 2 21 40 730 40 750 0 23 -4 27 -28 27 l-28 0 -23 -332z"/>
<path d="M5164 4658 c3 -18 13 -194 22 -390 l18 -358 37 0 c37 0 38 1 33 33
-2 17 -13 165 -24 327 -31 451 -26 420 -61 420 -28 0 -30 -2 -25 -32z"/>
<path d="M451 5073 c-26 -101 -53 -269 -58 -368 -4 -89 0 -146 21 -295 35
-237 76 -461 116 -623 71 -295 89 -483 70 -707 -19 -218 -17 -337 8 -480 40
-231 72 -484 72 -571 0 -84 1 -87 27 -105 33 -21 134 -24 179 -6 l29 12 -4
233 c-2 163 2 284 13 406 14 148 15 195 5 317 -10 115 -10 165 0 251 8 70 14
301 17 653 6 827 18 761 44 -250 6 -228 13 -446 16 -485 3 -38 1 -127 -4 -197
-7 -93 -6 -158 4 -250 22 -205 29 -488 14 -568 -13 -68 -12 -71 9 -94 39 -41
115 -55 181 -33 35 12 35 12 41 87 22 271 33 377 56 550 22 163 25 223 22 365
-2 94 -3 256 -2 360 l1 190 75 410 c99 538 101 554 94 705 -7 128 -37 359 -58
446 -23 94 -3 87 -237 78 -270 -10 -262 -10 -519 -1 l-222 8 -10 -38z m233
-23 l-7 -40 113 0 112 0 -7 36 c-5 28 -3 35 7 32 7 -3 15 -21 18 -42 3 -20 8
-37 13 -37 4 -1 59 2 122 6 l116 7 -3 37 c-3 30 0 36 19 39 18 3 22 -2 25 -30
l3 -33 108 -3 c121 -3 149 -22 32 -22 -69 0 -75 -2 -75 -20 0 -35 39 -100 73
-121 18 -10 49 -22 70 -25 22 -4 37 -12 37 -20 0 -11 -8 -13 -27 -8 -92 21
-148 69 -173 147 -12 39 -40 51 -40 17 0 -13 -7 -20 -19 -20 -11 0 -23 9 -26
20 -7 21 -42 26 -101 14 l-29 -6 7 -96 c10 -114 1 -236 -18 -274 -8 -15 -30
-39 -49 -54 -32 -24 -35 -30 -35 -80 0 -41 4 -54 15 -54 8 0 15 -4 15 -10 0
-5 -11 -10 -25 -10 -19 0 -25 5 -25 23 -6 257 -20 551 -27 558 -5 5 -56 6
-116 3 -95 -6 -107 -9 -107 -26 0 -13 -7 -18 -25 -18 -20 0 -25 5 -25 25 0 38
-27 20 -34 -23 -12 -74 -79 -143 -154 -158 -44 -9 -40 9 6 25 65 23 100 57
117 113 8 28 15 55 15 60 0 4 -19 8 -42 8 -52 0 -88 9 -88 21 0 6 40 7 95 3
l95 -7 0 42 c0 37 2 41 25 41 24 0 25 -2 19 -40z m293 19 c16 -16 5 -39 -18
-39 -12 0 -19 7 -19 18 0 31 17 41 37 21z"/>
<path d="M959 4973 l-26 -4 4 -92 c13 -323 13 -319 37 -304 44 29 56 73 56
207 0 69 -3 142 -6 163 -7 38 -8 39 -65 30z"/>
<path d="M6750 5061 c-143 -44 -218 -154 -245 -363 -3 -27 -4 -48 -1 -48 3 0
30 -7 61 -15 151 -39 424 -38 583 2 l64 16 -7 56 c-28 244 -142 362 -348 360
-45 0 -93 -4 -107 -8z"/>
<path d="M2263 5025 c-27 -19 -128 -143 -177 -216 l-35 -54 6 -102 c7 -121 23
-155 86 -183 69 -32 138 -23 204 27 36 28 73 96 73 136 0 24 4 27 35 27 31 0
35 -3 35 -27 0 -40 37 -108 75 -137 67 -51 154 -58 222 -16 47 28 60 63 66
177 l6 102 -62 87 c-34 48 -85 111 -112 141 -44 46 -56 53 -89 53 -20 0 -47
-5 -59 -11 -32 -17 -77 -61 -77 -76 0 -22 35 -14 61 13 32 34 65 47 90 34 18
-10 169 -191 169 -204 0 -3 -33 -6 -74 -6 -63 0 -83 -5 -131 -30 -48 -25 -68
-30 -130 -30 -43 0 -77 5 -81 11 -16 27 -90 49 -167 49 l-77 0 70 90 c112 141
131 150 197 88 20 -20 38 -28 48 -24 24 9 14 26 -34 64 -48 36 -101 43 -138
17z m45 -285 c21 -13 41 -38 54 -67 17 -39 19 -52 9 -84 -14 -46 -69 -96 -116
-105 -48 -9 -119 19 -146 58 -12 16 -24 49 -26 71 -11 110 127 187 225 127z
m449 3 c52 -25 75 -67 70 -131 -13 -181 -287 -166 -287 15 0 101 117 164 217
116z"/>
<path d="M6390 4629 c-36 -10 -97 -35 -137 -54 -109 -54 -143 -109 -107 -174
42 -76 193 -142 409 -177 133 -21 448 -25 570 -5 333 52 500 154 441 270 -31
59 -185 136 -314 157 l-42 7 0 -46 c0 -45 -1 -46 -37 -56 -73 -19 -196 -31
-318 -31 -122 0 -245 12 -317 31 -37 9 -38 11 -38 54 0 53 -7 55 -110 24z"/>
<path d="M3165 4501 c-22 -10 -60 -34 -85 -52 -25 -19 -54 -38 -64 -44 -27
-14 -32 -35 -8 -35 11 0 44 18 72 41 76 60 133 83 191 76 61 -7 82 -19 114
-62 54 -70 46 -154 -24 -246 -65 -87 -78 -115 -86 -186 -7 -61 -8 -61 -44 -67
-119 -20 -217 -105 -346 -301 -137 -208 -161 -227 -479 -387 -261 -131 -264
-132 -254 -158 6 -17 6 -37 -3 -62 -11 -35 -29 -52 -29 -28 0 5 -7 7 -15 4
-21 -9 -45 14 -45 42 0 32 -9 30 -63 -11 -66 -51 -89 -93 -95 -178 -4 -59 -2
-70 9 -59 7 6 21 12 32 12 14 0 17 -5 12 -19 -3 -11 -2 -22 3 -25 5 -3 9 8 10
24 0 16 3 34 7 40 4 6 460 10 1319 10 l1313 0 47 -26 46 -26 0 39 c0 79 -26
137 -86 192 -31 28 -59 51 -63 51 -4 0 -11 -15 -16 -32 -12 -39 -46 -49 -77
-21 -16 14 -19 26 -14 59 l5 41 -252 126 c-320 160 -342 178 -468 367 -53 80
-121 170 -150 201 -61 64 -155 116 -225 126 l-47 6 6 59 c5 59 19 87 93 191
64 92 67 187 7 265 -51 67 -165 92 -248 53z m605 -1239 c228 -118 474 -246
545 -283 l130 -69 -1112 0 c-611 0 -1119 -3 -1128 -6 -13 -5 -16 -2 -13 12 2
14 155 98 553 305 544 282 550 285 580 271 17 -8 217 -111 445 -230z m-1600
-292 c0 -5 -4 -10 -10 -10 -5 0 -10 5 -10 10 0 6 5 10 10 10 6 0 10 -4 10 -10z
m15 -39 c-3 -12 -11 -21 -16 -21 -6 0 -7 6 -2 13 4 6 8 15 9 20 1 4 2 10 3 14
0 3 4 4 7 0 3 -3 3 -15 -1 -26z m30 -51 c3 -5 -1 -10 -10 -10 -9 0 -13 5 -10
10 3 6 8 10 10 10 2 0 7 -4 10 -10z m5 -40 c0 -5 -4 -10 -10 -10 -5 0 -10 5
-10 10 0 6 5 10 10 10 6 0 10 -4 10 -10z"/>
<path d="M6309 3312 c-80 -21 -111 -41 -143 -90 -30 -44 -72 -183 -63 -205 3
-9 60 -43 126 -76 71 -36 121 -68 124 -78 3 -10 8 -61 12 -113 4 -55 21 -151
41 -227 19 -73 34 -148 34 -168 0 -19 -16 -110 -36 -202 -77 -365 -114 -564
-128 -688 -25 -216 -56 -581 -63 -731 l-6 -141 39 -6 c246 -39 1228 -29 1254
14 17 27 -52 820 -90 1044 -12 66 -47 237 -77 380 -68 311 -69 348 -24 520 21
77 35 155 38 217 7 116 3 111 151 188 l107 55 -1 45 c-2 53 -45 164 -77 198
-30 33 -65 50 -140 67 l-65 15 -83 -39 c-112 -52 -192 -71 -324 -78 -179 -9
-333 20 -472 91 -61 30 -50 30 -134 8z m279 -99 c84 -22 119 -26 257 -27 124
-1 178 3 240 18 84 19 210 66 250 92 22 14 24 14 34 -5 10 -18 5 -23 -51 -49
-280 -133 -648 -134 -915 -5 -63 31 -71 37 -61 53 11 17 16 15 80 -17 38 -19
113 -46 166 -60z m672 -853 l0 -40 -405 0 -405 0 0 40 0 40 405 0 405 0 0 -40z"/>
<path d="M2193 2783 c1 -15 9 -28 17 -30 13 -4 13 -3 1 5 -12 8 -12 14 -3 25
10 12 10 16 -2 20 -11 4 -14 -1 -13 -20z"/>
<path d="M1955 2730 c3 -5 8 -10 11 -10 2 0 4 5 4 10 0 6 -5 10 -11 10 -5 0
-7 -4 -4 -10z"/>
<path d="M2191 2728 c-1 -20 14 -24 25 -6 4 6 3 8 -4 4 -5 -3 -13 0 -15 6 -3
8 -6 6 -6 -4z"/>
<path d="M1956 2701 c-3 -5 1 -11 9 -14 9 -4 12 -1 8 9 -6 16 -10 17 -17 5z"/>
<path d="M2183 2669 c-2 -29 10 -38 23 -17 4 7 3 8 -4 4 -15 -9 -16 6 -1 21 7
7 7 12 -3 15 -9 4 -14 -4 -15 -23z"/>
<path d="M1965 2644 c0 -13 5 -26 11 -28 7 -3 9 5 6 20 -6 33 -17 38 -17 8z"/>
<path d="M2173 2617 c-2 -19 -11 -82 -13 -82 -1 0 -3 -9 -4 -20 -2 -11 -7 -32
-11 -47 -4 -18 -3 -28 4 -28 6 0 8 7 5 15 -4 8 -2 15 3 15 6 0 9 14 8 31 -1
19 4 33 12 36 12 5 12 7 1 14 -11 8 -11 11 1 18 8 5 10 14 6 21 -4 7 -2 16 5
20 9 5 8 9 -2 13 -8 3 -15 0 -15 -6z"/>
<path d="M1975 2574 c0 -13 5 -26 11 -28 7 -3 9 5 6 20 -6 33 -17 38 -17 8z"/>
<path d="M1985 2520 c3 -5 11 -10 16 -10 6 0 7 5 4 10 -3 6 -11 10 -16 10 -6
0 -7 -4 -4 -10z"/>
<path d="M1986 2491 c-3 -5 1 -11 9 -15 8 -3 15 -1 15 4 0 13 -18 22 -24 11z"/>
<path d="M1990 2450 c0 -6 5 -8 11 -4 8 4 9 0 4 -15 -4 -13 -2 -21 5 -21 7 0
10 -7 6 -15 -3 -8 -1 -15 4 -15 6 0 10 -7 10 -15 0 -8 4 -15 9 -15 13 0 -23
103 -37 108 -7 2 -12 -1 -12 -8z"/>
<path d="M2119 2381 c-7 -28 -18 -51 -23 -52 -6 0 -30 0 -53 1 -40 1 -44 -1
-97 -66 l-56 -68 0 -363 0 -363 195 0 195 0 0 364 0 363 -47 61 c-52 66 -75
81 -99 61 -8 -6 -18 -9 -21 -5 -4 4 -2 11 5 15 7 4 10 15 6 24 -3 10 -1 17 6
17 6 0 8 5 4 11 -3 6 -2 14 4 18 6 4 7 12 3 20 -6 9 -13 -3 -22 -38z m1 -91
c0 -5 -4 -10 -10 -10 -5 0 -10 5 -10 10 0 6 5 10 10 10 6 0 10 -4 10 -10z m0
-50 c8 -15 6 -24 -10 -40 -26 -26 -60 -12 -60 25 0 26 18 33 37 14 9 -9 10 -6
6 11 -7 27 11 20 27 -10z m-79 -220 c28 0 29 2 29 46 0 27 4 43 10 39 6 -3 10
-24 10 -46 0 -38 1 -39 35 -39 34 0 35 1 35 39 0 22 5 43 10 46 6 4 10 -15 10
-49 l0 -56 -95 0 -95 0 0 48 c0 63 14 77 18 18 3 -44 5 -46 33 -46z m139 -95
l0 -45 -97 0 c-115 0 -120 9 -7 12 l79 3 3 38 c4 52 22 46 22 -8z m0 -94 c0
-5 -13 -14 -30 -21 -27 -11 -30 -17 -30 -55 0 -38 3 -44 30 -55 17 -7 30 -17
30 -22 0 -12 2 -12 -109 38 l-84 38 88 43 c92 45 105 49 105 34z m-159 -214
c-14 -14 -14 -44 0 -53 6 -3 30 12 53 35 60 59 106 53 106 -16 0 -22 -6 -36
-20 -43 -24 -13 -25 -7 -4 25 13 20 14 28 4 40 -18 22 -33 19 -66 -16 -16 -17
-37 -35 -46 -40 -27 -15 -58 6 -58 39 0 30 18 55 32 45 6 -3 5 -10 -1 -16z"/>
<path d="M2066 1773 l-30 -16 28 -14 c33 -17 39 -14 34 20 -3 25 -4 25 -32 10z"/>
<path d="M4731 2284 c-40 -7 -75 -14 -76 -16 -2 -2 13 -50 33 -108 31 -91 36
-118 36 -201 1 -88 -1 -99 -27 -137 -25 -38 -90 -95 -120 -105 -7 -2 -3 -14
11 -34 31 -44 78 -167 104 -270 31 -127 31 -320 0 -462 -22 -99 -80 -280 -117
-365 -16 -37 -16 -41 0 -52 84 -61 918 -69 1095 -10 44 14 43 22 -5 146 -48
124 -90 290 -105 416 -24 203 22 409 138 626 2 3 -6 9 -17 13 -32 10 -108 90
-126 130 -8 21 -15 61 -15 90 0 54 36 211 65 279 9 21 14 40 12 42 -5 5 -170
35 -172 31 -1 -1 -9 -31 -17 -67 -56 -230 -145 -330 -292 -330 -145 1 -232 96
-287 313 -12 48 -27 87 -33 86 -6 -1 -44 -7 -85 -15z m112 -143 c23 -82 78
-173 127 -209 45 -34 105 -52 169 -52 143 0 257 120 307 323 11 42 22 67 31
67 9 0 12 -8 7 -27 -54 -249 -163 -377 -330 -391 -112 -9 -207 40 -273 139
-57 85 -115 272 -87 282 6 2 15 -10 20 -27 4 -17 18 -64 29 -105z m-117 58
c64 -167 71 -310 19 -395 -28 -45 -104 -114 -126 -114 -5 0 -9 7 -9 15 0 8 5
15 10 15 6 0 33 22 60 49 91 91 98 187 29 391 -33 96 -34 103 -17 98 7 -3 22
-29 34 -59z m865 40 c-3 -8 -18 -52 -34 -99 -21 -61 -30 -111 -34 -175 -4 -86
-3 -92 26 -142 17 -28 48 -64 71 -80 36 -25 53 -53 32 -53 -5 0 -30 16 -55 36
-64 50 -107 136 -107 214 0 99 67 327 93 317 7 -3 10 -11 8 -18z"/>
<path d="M2880 2191 c0 -59 -2 -63 -55 -128 -103 -126 -138 -215 -330 -823
-20 -63 -63 -191 -96 -284 -32 -93 -59 -175 -59 -182 0 -7 17 -23 38 -36 39
-24 98 -29 196 -14 l48 8 -7 -51 -7 -50 74 -22 c61 -19 97 -23 218 -24 l145 0
0 29 c1 28 3 29 45 30 41 1 44 -1 52 -30 12 -49 42 -57 233 -61 146 -3 186 -1
283 18 91 19 111 26 108 38 -4 12 17 27 74 55 77 38 83 39 174 37 74 -1 106 3
150 20 31 11 56 26 56 33 0 7 -44 131 -99 277 -54 145 -131 370 -171 499 -111
358 -131 401 -245 532 -54 62 -55 64 -55 127 l0 63 -27 -7 c-129 -33 -178 -38
-348 -38 -165 -1 -316 15 -379 39 -14 5 -16 -2 -16 -55z m484 -183 c3 -13 8
-36 11 -53 4 -16 9 -48 12 -70 4 -33 3 -38 -8 -28 -7 7 -16 37 -20 65 -4 29
-11 65 -14 81 -5 17 -3 27 4 27 6 0 13 -10 15 -22z m157 -273 c27 -137 76
-358 109 -490 58 -235 124 -554 117 -561 -11 -12 -103 367 -157 646 -17 91
-46 224 -65 295 -18 72 -40 173 -48 225 -45 277 -22 218 44 -115z m59 115 c7
-63 14 -155 16 -205 l3 -90 -14 50 c-8 28 -15 86 -15 131 0 44 -7 125 -15 179
-8 54 -11 103 -8 109 9 14 19 -34 33 -174z m141 123 c10 -24 35 -115 54 -201
20 -86 51 -211 70 -277 19 -66 42 -154 50 -195 9 -41 45 -179 80 -306 36 -126
65 -234 65 -240 -1 -18 -51 112 -90 233 -37 116 -58 207 -94 404 -9 47 -36
151 -60 230 -25 79 -52 182 -61 229 -10 47 -25 106 -35 132 -22 60 -5 52 21
-9z m-432 -178 c13 -49 14 -128 2 -121 -21 13 -51 312 -34 338 5 8 11 -25 15
-82 3 -52 11 -113 17 -135z m-340 -135 c-5 -135 -16 -279 -23 -320 l-13 -75
-2 97 c0 53 6 152 15 220 11 79 14 155 11 213 -4 50 -3 117 0 150 l7 60 8 -50
c4 -27 3 -160 -3 -295z m-174 223 c-9 -43 -34 -146 -56 -228 -21 -83 -50 -232
-65 -330 -25 -178 -90 -524 -99 -534 -25 -25 34 326 155 914 15 74 73 266 78
261 2 -3 -3 -40 -13 -83z m849 -13 c8 -52 17 -133 21 -180 4 -47 15 -137 25
-200 25 -150 40 -296 39 -362 l-1 -53 -14 65 c-7 36 -20 130 -28 210 -9 80
-20 188 -26 240 -6 52 -17 138 -25 190 -14 91 -20 198 -10 189 2 -3 11 -48 19
-99z m-602 -162 c-2 -139 1 -319 7 -399 17 -232 25 -616 13 -604 -14 14 -32
356 -32 611 0 115 -5 261 -10 324 -6 76 -6 144 1 200 9 76 17 120 22 120 1 0
1 -114 -1 -252z m192 129 c9 -64 20 -188 26 -275 6 -86 27 -260 47 -387 28
-183 36 -265 38 -400 2 -93 1 -154 -1 -135 -14 108 -47 411 -64 580 -10 107
-28 269 -39 360 -21 176 -37 388 -28 380 3 -3 13 -58 21 -123z m-428 -67 c-14
-74 -34 -178 -45 -230 -11 -52 -27 -169 -36 -260 -17 -181 -38 -335 -60 -438
l-14 -67 5 100 c6 115 23 253 58 468 14 84 30 190 36 237 17 129 69 357 77
334 2 -5 -8 -70 -21 -144z m566 -252 c14 -492 18 -779 8 -723 -5 28 -14 226
-19 441 -6 215 -13 398 -17 407 -7 20 5 191 13 183 3 -3 10 -142 15 -308z
m-272 72 c6 -118 19 -273 30 -345 28 -192 48 -535 31 -535 -9 0 -24 165 -41
440 -6 91 -17 217 -25 280 -19 159 -27 290 -19 339 4 23 8 40 10 38 2 -1 8
-99 14 -217z m675 -190 c8 -79 31 -206 50 -282 36 -147 80 -376 72 -384 -13
-13 -85 300 -107 464 -6 45 -20 128 -30 184 -11 57 -22 145 -25 198 l-4 95 14
-65 c8 -36 21 -130 30 -210z"/>
<path d="M565 1632 c-3 -15 -22 -61 -40 -103 -56 -127 -58 -143 -40 -292 9
-73 24 -215 34 -316 13 -126 23 -186 33 -192 7 -5 30 -9 51 -9 l37 0 0 245 c0
146 4 245 9 245 16 0 95 -83 155 -162 31 -41 76 -120 102 -178 25 -58 53 -113
62 -124 43 -47 102 -57 193 -30 72 21 188 82 204 108 7 12 17 62 20 112 7 85
6 93 -14 113 -11 11 -33 23 -48 26 -156 33 -201 77 -228 225 -4 19 -15 71 -25
115 -10 44 -21 92 -25 108 -5 23 -10 27 -40 27 -61 0 -227 -30 -249 -46 -31
-21 -38 -18 -70 32 -38 59 -73 102 -96 114 -15 8 -19 5 -25 -18z m374 -424
c133 -219 168 -284 155 -286 -9 -2 -23 2 -30 10 -25 25 -333 542 -328 550 16
25 48 -18 203 -274z m-363 76 c35 -25 64 -50 64 -55 0 -11 -145 84 -156 103
-12 20 22 2 92 -48z m327 -339 c4 -8 25 -24 48 -36 37 -18 54 -21 123 -16 46
2 120 16 171 32 114 35 143 41 130 27 -20 -21 -220 -74 -301 -79 -64 -4 -87
-2 -115 12 -38 19 -79 54 -79 67 0 14 18 9 23 -7z"/>
</g>
</svg>
