<?xml version="1.0" standalone="no"?>
<!DOCTYPE svg PUBLIC "-//W3C//DTD SVG 20010904//EN"
 "http://www.w3.org/TR/2001/REC-SVG-20010904/DTD/svg10.dtd">
<svg version="1.0" xmlns="http://www.w3.org/2000/svg"
 width="1300.000000pt" height="1300.000000pt" viewBox="0 0 1300.000000 1300.000000"
 preserveAspectRatio="xMidYMid meet">

<g transform="translate(0.000000,1300.000000) scale(0.100000,-0.100000)"
fill="#000000" stroke="none">
<path d="M6010 10914 c-229 -24 -287 -35 -276 -53 3 -5 -2 -8 -11 -7 -12 1
-20 -10 -27 -34 -7 -31 -2 -49 37 -140 70 -164 315 -725 346 -793 15 -34 34
-78 41 -97 7 -19 17 -39 21 -45 4 -5 18 -37 32 -70 32 -77 77 -180 167 -385
39 -91 85 -194 100 -230 15 -36 46 -105 68 -155 35 -80 99 -226 256 -584 25
-58 45 -106 43 -107 -1 -1 -112 -7 -247 -13 -282 -13 -639 -36 -853 -54 l-148
-13 -82 118 c-45 65 -122 177 -172 249 -49 72 -110 160 -135 195 -66 94 -95
136 -266 384 -85 124 -166 236 -180 250 l-24 25 -270 0 -270 0 -25 -26 c-43
-43 -37 -71 61 -294 7 -16 65 -154 129 -305 64 -151 123 -288 130 -305 55
-125 195 -457 195 -463 -1 -4 -24 -20 -53 -37 -172 -99 -184 -353 -21 -473 30
-22 60 -42 66 -44 8 -3 4 -22 -12 -61 l-24 -57 -122 0 -122 0 -26 -31 c-28
-33 -32 -53 -16 -93 20 -53 40 -56 396 -56 l326 0 35 35 c30 30 35 40 29 67
-3 18 -16 42 -28 55 -20 22 -29 23 -145 23 -82 0 -123 4 -123 11 0 6 14 41 30
79 17 38 30 80 30 94 0 43 -38 74 -115 95 -84 24 -115 53 -115 111 0 61 36 95
118 114 74 17 112 48 112 92 0 22 -45 140 -96 254 -18 39 -54 124 -199 465
-54 127 -125 295 -160 375 -34 80 -65 155 -69 168 l-7 22 143 0 143 -1 130
-190 c72 -104 150 -218 175 -253 74 -105 138 -197 193 -278 127 -189 300 -437
326 -468 l28 -34 144 12 c254 22 536 41 849 56 532 27 508 25 538 51 38 33 34
79 -21 200 -25 55 -87 195 -137 310 -51 116 -105 239 -121 275 -41 92 -430
982 -436 998 -4 10 -8 10 -22 0 -14 -12 -14 -11 -2 4 15 20 15 17 -134 358
-42 96 -99 227 -127 290 -27 63 -57 126 -66 140 -9 14 -15 29 -14 33 1 4 -2
17 -8 27 -8 15 -8 20 2 20 7 0 92 9 188 20 142 16 177 17 185 7 6 -7 192 -255
414 -551 256 -340 413 -541 428 -547 13 -5 147 -9 297 -9 260 0 275 -1 299
-20 48 -38 42 -132 -10 -156 -10 -4 -85 -11 -166 -14 -148 -5 -149 -5 -173
-33 -28 -33 -31 -72 -7 -107 54 -81 188 -252 203 -260 11 -6 139 -10 315 -10
325 0 340 -2 388 -59 22 -27 27 -42 27 -87 0 -48 -4 -58 -35 -93 -43 -47 -95
-63 -209 -61 -124 2 -125 2 -151 -26 -46 -49 -26 -122 38 -143 38 -13 248 -7
305 9 131 35 235 172 235 309 0 130 -63 235 -177 294 l-61 32 -294 3 c-263 3
-296 5 -307 20 -21 27 -18 29 44 35 74 6 127 33 179 90 69 75 89 175 55 273
-22 63 -53 102 -116 145 l-49 34 -276 5 -276 5 -90 119 c-49 65 -160 212 -245
326 -404 540 -485 646 -499 657 -22 17 -101 14 -371 -13z m-210 -119 c13 -14
21 -25 18 -25 -2 0 -15 11 -28 25 -13 14 -21 25 -18 25 2 0 15 -11 28 -25z
m86 -87 l29 -33 -32 29 c-18 17 -33 31 -33 33 0 8 8 1 36 -29z m884 -362 c0
-2 -8 -10 -17 -17 -16 -13 -17 -12 -4 4 13 16 21 21 21 13z m-560 -560 c0 -2
-8 -10 -17 -17 -16 -13 -17 -12 -4 4 13 16 21 21 21 13z"/>
<path d="M3264 8990 c-64 -26 -79 -103 -28 -147 25 -23 26 -23 393 -23 352 0
369 1 394 20 33 26 41 62 23 104 -11 27 -23 37 -53 45 -46 13 -698 14 -729 1z"/>
<path d="M8145 8415 c-18 -17 -25 -35 -25 -62 0 -32 13 -55 82 -146 44 -60 90
-115 102 -122 17 -11 126 -12 651 -5 762 11 846 6 1092 -69 201 -60 339 -132
442 -227 94 -87 92 -136 -7 -225 -93 -83 -281 -172 -472 -224 -154 -41 -298
-58 -492 -59 -151 -1 -175 -3 -165 -15 9 -11 6 -11 -13 1 -21 14 -96 17 -525
22 -394 5 -503 3 -516 -6 -8 -7 -104 -131 -212 -276 -134 -179 -197 -272 -197
-289 0 -34 30 -83 55 -88 11 -2 76 -6 145 -7 112 -3 128 -5 158 -26 42 -30 62
-70 62 -124 0 -57 -28 -100 -82 -127 -42 -20 -58 -21 -339 -21 -245 0 -298 -3
-316 -15 -34 -24 -213 -272 -213 -295 0 -33 26 -75 55 -88 16 -7 78 -12 161
-12 129 0 136 -1 159 -24 35 -35 42 -72 21 -111 -10 -18 -29 -38 -42 -44 -16
-7 -97 -11 -216 -11 l-191 0 19 -22 19 -23 -26 23 c-21 18 -37 22 -97 22 -79
0 -111 -11 -132 -43 -7 -12 -113 -154 -234 -315 -122 -161 -230 -306 -241
-322 -21 -31 -315 -421 -324 -431 -3 -4 -82 2 -176 12 -93 10 -176 18 -182 18
-7 1 -13 6 -13 12 0 5 63 154 140 330 77 176 140 332 140 347 0 35 -25 70 -57
83 -34 13 -89 -5 -104 -34 -35 -65 -349 -793 -349 -809 0 -28 27 -75 47 -83
19 -7 379 -49 525 -61 72 -5 92 -4 112 9 13 9 205 258 427 554 222 296 408
541 414 545 5 4 120 8 255 8 290 0 315 5 397 86 55 54 83 121 83 193 -1 51
-30 130 -65 174 -36 45 -132 95 -193 100 -23 2 -42 8 -41 13 3 31 17 33 299
36 l285 3 62 29 c214 98 264 368 99 528 -51 49 -94 72 -168 88 -32 7 -58 15
-58 17 0 3 33 48 73 101 40 53 91 121 113 150 l39 53 290 -5 c160 -4 412 -9
560 -12 l270 -6 -30 34 -30 33 37 -34 37 -34 143 11 c79 7 193 21 253 33 306
58 630 214 745 358 76 97 91 204 43 302 -110 221 -544 425 -998 469 -116 12
-585 9 -1121 -6 l-201 -6 -66 90 c-37 49 -74 92 -83 96 -34 13 -75 6 -99 -19z
m1265 -1210 c13 -14 21 -25 18 -25 -2 0 -15 11 -28 25 -13 14 -21 25 -18 25 2
0 15 -11 28 -25z m-1999 -1592 c13 -16 12 -17 -3 -4 -10 7 -18 15 -18 17 0 8
8 3 21 -13z"/>
<path d="M2756 8135 c-48 -16 -71 -79 -45 -127 24 -45 53 -48 472 -48 263 0
405 4 426 11 58 20 79 113 34 150 -20 18 -838 30 -887 14z"/>
<path d="M2285 8115 c-45 -44 -29 -116 30 -141 71 -29 190 -10 214 34 19 35
13 81 -14 107 -22 23 -32 25 -115 25 -83 0 -93 -2 -115 -25z"/>
<path d="M5433 7361 c-21 -27 -78 -108 -128 -181 -49 -72 -151 -219 -225 -326
-74 -106 -164 -237 -200 -289 -36 -53 -108 -157 -161 -233 l-96 -137 -142 -3
c-77 -1 -141 1 -141 6 0 4 50 124 111 267 60 143 126 296 145 341 39 94 42
131 13 168 -16 21 -29 26 -63 26 -56 0 -76 -22 -125 -140 -21 -52 -98 -234
-171 -405 -73 -170 -136 -322 -140 -336 -9 -32 11 -83 39 -98 12 -7 114 -11
283 -11 212 0 268 3 284 14 11 8 67 82 125 166 57 83 145 210 196 283 137 198
148 213 231 334 315 455 291 425 326 419 78 -13 209 -18 202 -8 -4 6 5 5 21
-2 28 -14 328 -36 763 -57 124 -6 226 -12 227 -13 3 -2 -68 -165 -208 -479
-21 -48 -39 -90 -39 -93 0 -3 -7 -21 -16 -40 -14 -29 -14 -37 -3 -52 13 -15
12 -16 -3 -3 -15 11 -19 11 -25 -5 -12 -33 -240 -557 -324 -747 -43 -95 -47
-130 -23 -165 23 -34 60 -45 101 -31 40 13 41 15 173 318 54 124 126 288 159
365 50 114 59 142 49 155 -10 13 -10 14 2 4 11 -10 28 21 97 180 128 294 212
484 251 572 44 98 46 136 9 173 -25 25 -35 27 -115 30 -237 7 -741 35 -1030
57 -177 14 -338 25 -357 25 -30 0 -40 -7 -72 -49z m222 9 c10 -11 16 -20 13
-20 -3 0 -13 9 -23 20 -10 11 -16 20 -13 20 3 0 13 -9 23 -20z m76 -77 c13
-16 12 -17 -3 -4 -10 7 -18 15 -18 17 0 8 8 3 21 -13z m1139 -436 c0 -2 -10
-12 -22 -23 l-23 -19 19 23 c18 21 26 27 26 19z m-259 -444 c13 -16 12 -17 -3
-4 -10 7 -18 15 -18 17 0 8 8 3 21 -13z"/>
<path d="M3335 7265 c-16 -15 -25 -36 -25 -55 0 -72 43 -100 157 -100 l78 0
75 73 75 72 -70 -72 -69 -73 269 0 c250 0 272 2 302 20 40 24 52 73 29 118 -8
16 -23 32 -31 36 -9 3 -185 6 -391 6 l-375 0 -24 -25z"/>
<path d="M2788 6410 c-15 -16 -28 -38 -28 -50 0 -29 26 -77 49 -90 13 -6 170
-10 436 -10 l417 0 29 29 c17 18 29 40 29 56 0 38 -26 82 -52 89 -13 3 -195 6
-405 6 -353 0 -383 -1 -393 -17 -9 -15 -11 -15 -7 -2 9 28 -44 20 -75 -11z
m62 -4 c0 -2 -8 -10 -17 -17 -16 -13 -17 -12 -4 4 13 16 21 21 21 13z"/>
<path d="M8965 3861 c-176 -50 -294 -168 -327 -324 -25 -116 23 -179 181 -240
55 -21 108 -47 120 -58 46 -43 10 -134 -66 -165 -75 -32 -184 -7 -234 53 l-25
30 -70 -51 c-39 -28 -85 -63 -102 -78 l-32 -27 34 -35 c56 -60 134 -89 252
-94 120 -5 184 7 273 51 161 78 281 279 241 401 -18 56 -87 109 -191 147 -95
35 -139 66 -139 96 0 60 85 122 168 123 48 0 113 -29 135 -61 15 -21 15 -21
66 17 28 21 49 44 47 51 -3 6 1 10 7 7 7 -2 32 10 56 28 l42 33 -41 37 c-83
74 -254 100 -395 59z m280 -101 c21 -22 37 -40 34 -40 -3 0 -23 18 -44 40 -21
22 -37 40 -34 40 3 0 23 -18 44 -40z"/>
<path d="M9784 3865 c-143 -39 -261 -130 -308 -235 -15 -34 -25 -68 -22 -76 3
-9 1 -12 -4 -9 -6 4 -10 -14 -10 -45 0 -70 29 -123 85 -155 40 -24 187 -85
203 -85 4 0 -45 53 -108 118 l-115 117 117 -114 c64 -63 115 -118 113 -121 -3
-4 4 -15 15 -25 26 -24 25 -64 -2 -105 -64 -93 -222 -94 -300 -2 -28 33 -24
35 -150 -62 -62 -46 -76 -61 -69 -75 17 -30 56 -60 116 -88 51 -23 76 -28 166
-31 80 -3 121 0 165 13 181 52 314 184 343 341 22 113 -34 186 -185 243 -49
19 -101 43 -116 53 -77 53 17 168 136 168 52 0 117 -28 139 -60 13 -19 17 -17
110 53 53 39 97 77 97 83 0 18 -43 52 -105 81 -51 24 -74 28 -160 30 -63 2
-119 -3 -151 -12z m101 -745 c27 -27 47 -50 44 -50 -3 0 -27 23 -54 50 -27 28
-47 50 -44 50 3 0 27 -22 54 -50z"/>
<path d="M4051 3548 l1 -313 33 100 c18 55 65 196 103 313 l69 212 -103 0
-104 0 1 -312z"/>
<path d="M4367 3853 c-2 -5 -55 -163 -117 -353 -110 -337 -185 -566 -197 -595
-4 -13 41 -15 334 -15 l339 0 28 88 c16 48 31 93 33 99 4 10 -47 13 -219 15
l-224 3 30 97 31 98 202 0 201 0 28 83 c15 45 29 88 32 95 3 9 -40 12 -197 12
-111 0 -201 1 -201 3 0 4 46 136 55 160 6 15 27 17 219 17 l211 0 28 88 c15
48 27 93 27 100 0 9 -71 12 -319 12 -176 0 -322 -3 -324 -7z"/>
<path d="M5120 3851 c0 -4 34 -104 75 -221 41 -117 75 -218 75 -224 0 -6 -114
-125 -252 -263 l-253 -253 141 0 141 0 114 123 c63 68 134 144 157 171 24 26
45 46 47 44 1 -2 24 -78 51 -170 l48 -168 143 0 c79 0 143 2 143 4 0 2 -41
118 -91 257 l-90 253 228 228 228 228 -135 0 -135 0 -73 -80 c-44 -47 -70 -85
-66 -91 4 -7 3 -9 -4 -5 -6 3 -36 -21 -68 -54 -31 -33 -60 -60 -64 -60 -6 0
-40 117 -73 248 l-10 42 -139 0 c-76 0 -138 -4 -138 -9z m531 -198 c13 -16 12
-17 -3 -4 -10 7 -18 15 -18 17 0 8 8 3 21 -13z m64 -63 c10 -11 16 -20 13 -20
-3 0 -13 9 -23 20 -10 11 -16 20 -13 20 3 0 13 -9 23 -20z"/>
<path d="M6146 3818 c-19 -52 -158 -478 -160 -493 -1 -5 -4 -14 -8 -20 -5 -9
-62 -182 -118 -357 l-18 -58 117 0 116 0 60 183 60 182 135 6 c138 7 172 14
267 62 119 61 204 192 211 325 4 66 2 77 -23 113 -51 78 -143 99 -432 99
l-191 0 -16 -42z m366 -158 c46 -13 61 -38 52 -86 -10 -54 -57 -101 -117 -119
-52 -15 -187 -21 -187 -8 0 5 16 56 36 115 l36 108 71 0 c40 0 89 -5 109 -10z
m-471 -397 c13 -16 12 -17 -3 -4 -10 7 -18 15 -18 17 0 8 8 3 21 -13z m80 -80
c13 -16 12 -17 -3 -4 -10 7 -18 15 -18 17 0 8 8 3 21 -13z"/>
<path d="M6922 3518 c-182 -556 -202 -617 -202 -623 0 -3 51 -5 113 -5 l112 0
61 188 60 187 41 3 c26 2 42 -1 45 -10 3 -7 22 -93 44 -190 l38 -178 137 0
136 0 -35 123 c-19 67 -45 159 -57 204 l-23 83 73 35 c86 41 154 106 193 184
23 47 27 69 27 136 0 95 -19 131 -89 164 -66 32 -141 41 -361 41 l-201 0 -112
-342z m488 134 c45 -22 53 -71 18 -121 -33 -49 -65 -69 -127 -81 -69 -13 -171
-13 -171 0 0 11 60 200 67 213 2 4 43 7 91 7 63 0 97 -5 122 -18z"/>
<path d="M7912 3773 c-16 -49 -87 -263 -157 -478 -70 -214 -129 -393 -132
-397 -2 -5 149 -8 335 -8 l340 0 31 95 c17 52 31 97 31 100 0 3 -99 5 -220 5
-176 0 -220 3 -220 13 0 12 36 123 55 169 6 16 28 18 206 20 l200 3 29 85 c17
46 30 88 30 92 0 4 -89 9 -199 10 l-198 3 28 85 c16 47 28 86 29 88 0 1 96 2
213 2 l213 0 28 88 c16 48 31 93 33 100 4 9 -64 12 -320 12 l-324 0 -31 -87z"/>
<path d="M6643 2667 c3 -9 2 -17 -2 -19 -5 -2 -43 -111 -86 -243 -43 -132 -80
-244 -82 -248 -3 -5 57 -7 133 -5 126 3 144 5 197 30 31 15 81 49 110 77 119
112 151 282 69 358 -53 49 -80 57 -216 61 -114 4 -128 3 -123 -11z m259 -65
c38 -24 68 -74 68 -114 0 -14 -7 -47 -15 -73 -11 -39 -12 -52 -2 -64 10 -14
10 -14 -4 -4 -13 11 -20 6 -46 -30 -39 -53 -122 -104 -192 -117 -47 -9 -171
-14 -171 -7 0 1 31 97 69 212 37 116 65 215 60 220 -5 7 28 8 95 4 82 -4 110
-10 138 -27z"/>
<path d="M7142 2459 c-68 -208 -71 -223 -56 -240 9 -10 20 -17 24 -14 4 2 20
47 35 100 l28 95 134 0 c74 0 133 4 133 9 0 5 3 16 6 25 5 14 -9 16 -120 16
-73 0 -126 4 -126 9 0 6 11 46 25 90 l26 81 138 0 c142 0 151 2 151 41 0 5
-71 9 -163 9 l-163 0 -72 -221z"/>
<path d="M7660 2678 c0 -2 -38 -118 -85 -258 -47 -140 -85 -258 -85 -262 0 -4
67 -8 149 -8 127 0 150 2 155 16 3 9 6 18 6 20 0 2 -54 4 -120 4 -133 0 -132
-1 -106 67 19 51 136 409 136 417 0 5 -50 9 -50 4z"/>
<path d="M8028 2633 c-9 -27 -46 -140 -83 -253 -37 -113 -70 -211 -72 -217 -4
-9 5 -13 23 -13 29 1 29 2 112 253 45 139 82 258 82 265 0 6 -10 12 -23 12
-18 0 -26 -10 -39 -47z"/>
<path d="M8174 2608 c3 -40 8 -136 11 -213 3 -77 8 -164 11 -193 5 -52 6 -53
36 -50 28 3 48 28 205 248 213 300 201 280 166 280 -24 0 -37 -14 -88 -87 -33
-48 -84 -121 -113 -162 -29 -42 -74 -107 -100 -145 l-47 -69 -7 94 c-4 52 -10
156 -14 232 l-6 137 -30 0 -30 0 6 -72z"/>
<path d="M8707 2673 c-7 -12 -167 -505 -167 -515 0 -4 77 -8 170 -8 163 0 170
1 170 20 0 19 -7 20 -135 20 -101 0 -135 3 -135 13 0 6 13 53 29 102 l28 90
129 3 c127 3 143 7 144 40 0 9 -32 12 -125 12 -69 0 -125 3 -125 7 0 4 12 44
27 90 l27 82 140 3 c138 3 141 4 144 26 l3 22 -160 0 c-88 0 -162 -3 -164 -7z"/>
<path d="M9067 2416 c-48 -144 -87 -265 -87 -268 0 -2 12 -3 28 0 25 4 30 13
67 126 l40 121 45 0 45 0 31 -120 30 -120 32 -3 c18 -2 32 1 32 5 0 5 -15 61
-34 125 l-33 116 32 6 c77 15 155 105 155 179 0 73 -50 96 -206 97 l-91 0 -86
-264z m314 185 c32 -39 5 -107 -54 -138 -43 -22 -203 -32 -195 -12 3 8 17 52
33 97 l27 84 85 -4 c75 -3 87 -6 104 -27z"/>
<path d="M9530 2677 c0 -2 21 -67 46 -143 25 -76 46 -148 46 -159 0 -11 -13
-58 -28 -105 -38 -117 -38 -120 -10 -120 19 0 26 8 38 45 8 24 11 42 7 39 -5
-3 -1 10 10 28 10 18 24 51 31 73 9 31 47 75 163 193 151 151 151 152 117 151
-32 0 -47 -12 -155 -128 -68 -72 -123 -123 -127 -117 -4 6 -21 63 -39 128
l-32 118 -34 0 c-18 0 -33 -2 -33 -3z"/>
<path d="M9981 2413 c-45 -137 -81 -251 -81 -255 0 -5 38 -8 85 -8 l85 0 0
255 c0 140 -2 255 -4 255 -2 0 -40 -111 -85 -247z"/>
<path d="M7051 2188 c-6 -17 -10 -32 -9 -34 6 -5 84 -7 93 -2 6 3 18 3 27 -1
9 -3 63 -4 120 -1 88 4 103 8 106 23 3 16 -9 17 -141 17 -116 0 -147 3 -157
15 -18 22 -27 19 -39 -17z"/>
</g>
</svg>
