<?xml version="1.0" standalone="no"?>
<!DOCTYPE svg PUBLIC "-//W3C//DTD SVG 20010904//EN"
 "http://www.w3.org/TR/2001/REC-SVG-20010904/DTD/svg10.dtd">
<svg version="1.0" xmlns="http://www.w3.org/2000/svg"
 width="450.000000pt" height="278.000000pt" viewBox="0 0 450.000000 278.000000"
 preserveAspectRatio="xMidYMid meet">

<g transform="translate(0.000000,278.000000) scale(0.100000,-0.100000)"
fill="#000000" stroke="none">
<path d="M1730 2110 l0 -150 180 0 180 0 0 150 0 150 -180 0 -180 0 0 -150z
m160 75 c0 -18 5 -25 20 -25 15 0 20 7 20 25 0 24 3 25 55 25 l55 0 0 -100 0
-100 -130 0 -130 0 0 100 0 100 55 0 c52 0 55 -1 55 -25z"/>
<path d="M2243 2220 c-49 -30 -90 -124 -58 -136 8 -4 22 -21 31 -39 9 -20 30
-40 52 -51 51 -24 109 -4 134 46 10 19 28 37 40 40 26 7 37 30 14 30 -10 0
-16 9 -16 24 0 13 -9 35 -21 50 -44 56 -118 72 -176 36z"/>
<path d="M1522 2060 c-155 -23 -157 -35 -7 -45 58 -4 108 -8 112 -9 5 0 9 14
11 32 3 30 2 32 -30 31 -18 -1 -57 -5 -86 -9z"/>
<path d="M2735 2013 c-13 -12 -15 -26 -10 -57 3 -23 8 -64 11 -92 l6 -51 -96
-7 c-133 -10 -166 1 -241 81 -49 51 -67 63 -91 63 -17 0 -51 3 -76 6 l-44 6
-42 -153 c-23 -85 -42 -159 -42 -166 0 -21 23 -27 148 -39 67 -6 125 -13 127
-16 3 -3 21 -61 40 -129 20 -68 40 -133 46 -143 10 -18 8 -19 -31 -13 -50 6
-76 28 -101 82 -27 59 -25 83 9 87 23 3 27 8 30 38 1 19 -2 41 -6 48 -5 7 -52
16 -122 23 -63 6 -122 15 -131 20 -10 5 -121 9 -248 9 l-231 0 0 30 c0 28 -3
30 -35 30 l-35 0 0 -49 0 -50 90 -76 c81 -69 90 -80 90 -111 0 -25 4 -34 16
-34 12 0 15 -6 10 -22 -4 -13 -10 -49 -13 -80 l-6 -58 41 0 40 0 -1 -58 c-1
-43 4 -67 20 -95 l22 -37 -225 0 c-247 0 -275 -5 -306 -58 -26 -45 -111 -358
-104 -385 3 -13 17 -29 31 -35 19 -9 268 -12 961 -12 997 0 974 -1 1018 48 24
28 120 367 112 398 -10 37 -43 44 -210 44 l-152 0 51 53 c52 53 75 105 75 167
0 37 -27 99 -47 107 -25 10 -13 22 24 25 49 4 52 22 10 61 -37 36 -94 57 -150
57 -33 0 -38 4 -71 64 -20 35 -36 66 -36 69 0 2 23 2 50 -1 l50 -5 0 62 0 61
-35 0 c-20 0 -52 -7 -72 -15 -19 -8 -37 -15 -39 -15 -2 0 -13 18 -24 40 -27
53 -27 136 0 188 17 32 19 44 10 68 -18 45 -39 54 -65 27z m-344 -237 c50 -28
150 -44 226 -38 l51 4 17 -59 c10 -32 25 -86 35 -119 l18 -62 -52 -51 c-29
-28 -63 -53 -77 -56 -13 -3 -37 -10 -52 -16 -15 -7 -30 -10 -32 -7 -3 3 -14
69 -25 148 -11 79 -21 144 -22 145 -2 1 -40 17 -85 35 -83 34 -92 44 -73 81
14 24 18 24 71 -5z m627 -518 c19 -19 14 -79 -10 -113 -46 -68 -140 -105 -178
-70 -64 58 35 193 141 195 19 0 40 -5 47 -12z m-868 -75 c0 -20 -43 -75 -72
-93 -97 -59 -177 -15 -136 75 11 24 14 25 110 25 54 0 98 -3 98 -7z m564 -91
c3 -22 15 -51 27 -65 l20 -27 -323 0 -323 0 36 25 c19 14 46 43 60 65 l24 39
236 1 236 0 7 -38z m-994 -227 c10 -12 8 -33 -10 -107 -31 -125 -45 -138 -145
-138 -41 0 -75 2 -75 5 0 6 59 224 65 243 7 19 149 16 165 -3z m210 6 c0 -27
-15 -41 -41 -41 -24 0 -29 -4 -29 -25 0 -18 5 -25 20 -25 11 0 20 -4 20 -9 0
-24 -14 -41 -35 -41 -22 0 -35 -17 -35 -46 0 -8 10 -14 26 -14 20 0 25 -4 20
-16 -3 -9 -6 -20 -6 -25 0 -5 -32 -9 -71 -9 -62 0 -70 2 -65 18 2 9 14 53 26
97 42 158 32 145 106 145 35 0 64 -4 64 -9z m114 -78 c-33 -119 -33 -117 -6
-121 16 -3 22 -8 18 -19 -3 -8 -6 -19 -6 -24 0 -5 -29 -9 -65 -9 -36 0 -65 2
-65 5 0 6 59 224 65 243 2 7 21 12 44 12 l39 0 -24 -87z m196 80 c-1 -5 -16
-62 -34 -128 l-32 -120 -42 -3 -41 -3 14 48 c7 26 23 85 35 131 l22 82 39 0
c21 0 39 -3 39 -7z m126 -10 c-2 -10 -7 -43 -10 -73 l-6 -55 27 73 28 72 42 0
c34 0 41 -3 37 -15 -4 -8 -28 -66 -54 -128 l-47 -112 -63 -3 -63 -3 6 48 c3
26 9 85 13 131 l7 82 44 0 c37 0 44 -3 39 -17z m292 -5 c-2 -17 -12 -24 -33
-28 -21 -4 -31 -11 -33 -28 -3 -17 2 -22 18 -22 32 0 23 -44 -10 -49 -45 -6
-59 -61 -15 -61 26 0 29 -7 19 -34 -5 -12 -21 -16 -74 -16 l-69 0 24 88 c13
48 29 106 35 130 l11 42 65 0 c62 0 65 -1 62 -22z m220 -20 c2 -29 -2 -43 -21
-62 -20 -20 -22 -26 -10 -30 8 -3 12 -13 9 -23 -3 -10 -10 -37 -16 -60 -10
-41 -13 -43 -47 -43 -34 0 -35 1 -29 30 3 17 9 44 12 60 12 55 -12 31 -29 -30
l-17 -60 -41 0 c-34 0 -40 3 -35 18 3 9 12 43 20 75 9 31 23 82 31 112 l16 56
77 -3 77 -3 3 -37z m132 0 l0 -43 20 43 c17 38 22 42 55 42 19 0 35 -2 35 -4
0 -3 -22 -41 -50 -85 -27 -44 -50 -84 -50 -88 0 -5 -5 -25 -11 -45 -9 -35 -13
-38 -46 -38 l-35 0 8 38 c5 20 8 79 6 130 l-2 92 35 0 c35 0 35 -1 35 -42z"/>
<path d="M1625 828 c-34 -96 -46 -190 -19 -147 15 24 42 149 33 155 -5 3 -11
-1 -14 -8z"/>
<path d="M2782 811 c-12 -35 1 -42 19 -10 7 14 7 25 1 31 -6 6 -13 -1 -20 -21z"/>
<path d="M1680 1790 l0 -150 180 0 180 0 0 150 0 150 -180 0 -180 0 0 -150z
m160 75 c0 -18 5 -25 20 -25 15 0 20 7 20 25 0 24 3 25 55 25 l55 0 0 -105 0
-105 -130 0 -130 0 0 105 0 105 55 0 c52 0 55 -1 55 -25z"/>
<path d="M1471 1774 c-52 -7 -99 -18 -104 -23 -5 -5 20 -11 60 -15 37 -4 92
-9 121 -12 l52 -6 0 36 c0 41 8 40 -129 20z"/>
<path d="M1433 1477 c-57 -5 -103 -13 -103 -17 0 -12 42 -18 180 -26 l125 -6
-29 31 c-17 17 -39 30 -50 30 -12 -1 -67 -6 -123 -12z"/>
<path d="M1488 1242 c-183 -20 -185 -37 -5 -46 72 -4 149 -10 170 -13 l37 -6
0 42 c0 48 13 47 -202 23z"/>
</g>
</svg>
